# xmcd
#
# Track frame offsets: 
#        150
#        21792
#        41857
#        55520
#        78417
#        96852
#        138367
#        159732
#        171752
#        188230
#        208687
#        224942
#        244802
#        265012
#        281779
#        297714
#        318739
#        345276
#
# Disc length: 4791 seconds
#
# Revision: 1
# Processed by: cddbd v1.5.2PL0 Copyright (c) Steve Scherf et al.
# Submitted via: ExactAudioCopy v1.3
#
DISCID=1c12b512
DTITLE=Mississippi Fred McDowell - Akella Presents - Greatest Bluesmen
DTITLE=Various Artist - Vol. 04  CD1
DYEAR=2017
DGENRE=Blues
TTITLE0=Baby Please Don't Go
TTITLE1=Good Morning Little School Girl
TTITLE2=Kokomo Me Baby
TTITLE3=That's All Right Baby
TTITLE4=Red Cross Store
TTITLE5=Everybody's Down on Me
TTITLE6=61 Highway
TTITLE7=My Baby She Gonna Jump and Shout
TTITLE8=Jesus Is on the Mainline
TTITLE9=Someday
TTITLE10=Write Me a Few of Your Lines
TTITLE11=Mortgage on My Soul
TTITLE12=Baby Let Me Lay Down (in Your Cool Iron Bed)
TTITLE13=Drop Down Mama
TTITLE14=Somebody Keeps Callin' Me
TTITLE15=Eyes like an Eagle
TTITLE16=Long Line Skinner
TTITLE17=Baby Please Don't Go (alternate take)
EXTD=
EXTT0=
EXTT1=
EXTT2=
EXTT3=
EXTT4=
EXTT5=
EXTT6=
EXTT7=
EXTT8=
EXTT9=
EXTT10=
EXTT11=
EXTT12=
EXTT13=
EXTT14=
EXTT15=
EXTT16=
EXTT17=
PLAYORDER=
